
nColumns=19
nRows=62
DataType=double
version=3
OpenSimVersion=4.4-2022-10-11-798caa840
endheader
time	ground_force_calcn_r_vx	ground_force_calcn_r_vy	ground_force_calcn_r_vz	ground_force_calcn_r_px	ground_force_calcn_r_py	ground_force_calcn_r_pz	ground_force_calcn_r_mx	ground_force_calcn_r_my	ground_force_calcn_r_mz	ground_force_calcn_l_vx	ground_force_calcn_l_vy	ground_force_calcn_l_vz	ground_force_calcn_l_px	ground_force_calcn_l_py	ground_force_calcn_l_pz	ground_force_calcn_l_mx	ground_force_calcn_l_my	ground_force_calcn_l_mz
0	-10.7865	221.706	23.3925	0.119861	0	-0.14786	-0.025808	0.530459	0.0559693	0	0	0	0	0	0	0	0	0
0.01	-18.951	255.035	23.4947	0.125572	0	-0.147145	-0.0256177	0.344753	0.0317598	0	0	0	0	0	0	0	0	0
0.02	-27.9314	292.564	22.8554	0.132009	0	-0.146105	-0.0111597	0.116891	0.00913167	0	0	0	0	0	0	0	0	0
0.03	-37.5033	333.526	21.2383	0.13816	0	-0.144878	0.0171595	-0.152604	-0.00971754	0	0	0	0	0	0	0	0	0
0.04	-47.4154	376.901	18.4336	0.144028	0	-0.143507	0.0579673	-0.460778	-0.0225359	0	0	0	0	0	0	0	0	0
0.05	-57.3919	421.513	14.3074	0.149628	0	-0.142032	0.108879	-0.799659	-0.0271428	0	0	0	0	0	0	0	0	0
0.06	-67.1272	466.103	8.85036	0.154972	0	-0.140502	0.166152	-1.15369	-0.0219063	0	0	0	0	0	0	0	0	0
0.07000000000000001	-76.2983	509.38	2.21438	0.16006	0	-0.138969	0.224621	-1.49961	-0.00651911	0	0	0	0	0	0	0	0	0
0.08	-84.584	550.092	-5.28648	0.164885	0	-0.137488	0.278364	-1.81034	0.0173977	0	0	0	0	0	0	0	0	0
0.09	-91.68470000000001	587.123	-13.2222	0.169442	0	-0.136111	0.322019	-2.06212	0.0464397	0	0	0	0	0	0	0	0	0
0.1	-97.3574	619.5940000000001	-21.13	0.173731	0	-0.134875	0.352201	-2.24145	0.07643999999999999	0	0	0	0	0	0	0	0	0
0.11	-101.463	646.931	-28.6002	0.177768	0	-0.1338	0.368268	-2.34809	0.103807	0	0	0	0	0	0	0	0	0
0.12	-103.979	668.871	-35.3029	0.181575	0	-0.132896	0.371691	-2.39099	0.126196	0	0	0	0	0	0	0	0	0
0.13	-104.964	685.405	-40.9814	0.185184	0	-0.132162	0.36489	-2.3827	0.142465	0	0	0	0	0	0	0	0	0
0.14	-104.535	696.713	-45.4683	0.188624	0	-0.131598	0.350705	-2.33741	0.152542	0	0	0	0	0	0	0	0	0
0.15	-102.855	703.11	-48.6978	0.191928	0	-0.131195	0.332013	-2.26962	0.157195	0	0	0	0	0	0	0	0	0
0.16	-100.106	705.006	-50.6919	0.195127	0	-0.130941	0.311222	-2.1918	0.157597	0	0	0	0	0	0	0	0	0
0.17	-96.4689	702.877	-51.537	0.198249	0	-0.130825	0.290021	-2.11311	0.154939	0	0	0	0	0	0	0	0	0
0.18	-92.11409999999999	697.264	-51.3693	0.201318	0	-0.130832	0.269467	-2.03975	0.150274	0	0	0	0	0	0	0	0	0
0.19	-87.20489999999999	688.777	-50.3672	0.204355	0	-0.130946	0.250184	-1.97605	0.144499	0	0	0	0	0	0	0	0	0
0.2	-81.89570000000001	678.086	-48.7392	0.207377	0	-0.131151	0.232513	-1.92518	0.138377	0	0	0	0	0	0	0	0	0
0.21	-76.3329	665.901	-46.7052	0.210395	0	-0.13143	0.216625	-1.88976	0.132544	0	0	0	0	0	0	0	0	0
0.22	-70.6506	652.941	-44.4725	0.213418	0	-0.131767	0.202569	-1.87211	0.127511	0	0	0	0	0	0	0	0	0
0.23	-64.96680000000001	639.905	-42.2168	0.216449	0	-0.132148	0.190318	-1.87458	0.123673	0	0	0	0	0	0	0	0	0
0.24	-59.3807	627.434	-40.0699	0.219487	0	-0.13256	0.179779	-1.8996	0.121314	0	0	0	0	0	0	0	0	0
0.25	-53.9705	616.086	-38.1154	0.222527	0	-0.132995	0.17078	-1.94949	0.120609	0	0	0	0	0	0	0	0	0
0.26	-48.7876	606.312	-36.3941	0.225561	0	-0.133445	0.163052	-2.02634	0.121632	0	0	0	0	0	0	0	0	0
0.27	-43.853	598.448	-34.9236	0.228583	0	-0.133905	0.156212	-2.13177	0.124403	0	0	0	0	0	0	0	0	0
0.28	-39.16	592.712	-33.7162	0.231588	0	-0.134368	0.149728	-2.26622	0.128913	0	0	0	0	0	0	0	0	0
0.29	-34.687	589.212	-32.7936	0.234578	0	-0.134821	0.142959	-2.42839	0.135156	0	0	0	0	0	0	0	0	0
0.3	-30.409	587.966	-32.1902	0.237571	0	-0.135252	0.135244	-2.61497	0.143165	0	0	0	0	0	0	0	0	0
0.31	-26.3032	588.925	-31.9479	0.240594	0	-0.135645	0.125988	-2.82085	0.153025	0	0	0	0	0	0	0	0	0
0.32	-22.3468	592.002	-32.1074	0.243683	0	-0.135982	0.114741	-3.03967	0.164857	0	0	0	0	0	0	0	0	0
0.33	-18.5126	597.081	-32.7006	0.246873	0	-0.136253	0.101216	-3.2645	0.178788	0	0	0	0	0	0	0	0	0
0.34	-14.7643	604.029	-33.7456	0.250193	0	-0.136449	0.0852608	-3.48814	0.194873	0	0	0	0	0	0	0	0	0
0.35	-11.063	612.701	-35.2431	0.253671	0	-0.136568	0.0668627	-3.70306	0.213003	0	0	0	0	0	0	0	0	0
0.36	-7.37428	622.939	-37.1778	0.257323	0	-0.13661	0.0461823	-3.90124	0.23283	0	0	0	0	0	0	0	0	0
0.37	-3.67317	634.569	-39.5194	0.261169	0	-0.136581	0.0235812	-4.07384	0.253709	0	0	0	0	0	0	0	0	0
0.38	0.0570649	647.394	-42.2246	0.265216	0	-0.136488	-0.000371215	-4.21139	0.274677	0	0	0	0	0	0	0	0	0
0.39	3.82908	661.183	-45.2379	0.26947	0	-0.13634	-0.0249277	-4.30438	0.294504	0	0	0	0	0	0	0	0	0
0.4	7.65672	675.672	-48.4912	0.273919	0	-0.136149	-0.0492292	-4.34427	0.311777	0	0	0	0	0	0	0	0	0
0.41	11.562	690.559	-51.9043	0.278541	0	-0.135931	-0.07240829999999999	-4.3247	0.325056	0	0	0	0	0	0	0	0	0
0.42	15.5789	705.503	-55.3861	0.283295	0	-0.135701	-0.0936872	-4.24271	0.333077	0	0	0	0	0	0	0	0	0
0.43	19.752	720.111	-58.8358	0.288126	0	-0.135476	-0.112449	-4.09962	0.334954	0	0	0	0	0	0	0	0	0
0.44	24.1321	733.927	-62.1444	0.292969	0	-0.135276	-0.128281	-3.90139	0.330345	0	0	0	0	0	0	0	0	0
0.45	28.766	746.429	-65.199	0.297756	0	-0.135116	-0.140981	-3.65821	0.319537	0	0	0	0	0	0	0	0	0
0.46	33.6844	757.033	-67.88890000000001	0.302423	0	-0.13501	-0.150551	-3.38352	0.303426	0	0	0	0	0	0	0	0	0
0.47	38.8928	765.109	-70.1134	0.306917	0	-0.134971	-0.157195	-3.09239	0.283381	0	0	0	0	0	0	0	0	0
0.48	44.3648	769.994	-71.78830000000001	0.311198	0	-0.135004	-0.161297	-2.79948	0.261002	0	0	0	0	0	0	0	0	0
0.49	50.0347	771.028	-72.8473	0.315248	0	-0.135112	-0.16339	-2.51781	0.237885	2.06965	26.7099	-8.55321	0.705363	0	-0.278483	-0.0218021	-0.281368	0.0901013
0.5	55.7908	767.5839999999999	-73.2377	0.319059	0	-0.135292	-0.164136	-2.25822	0.215464	0.281874	49.5153	-9.64434	0.763037	0	-0.310033	-0.00103653	-0.182082	0.0354651
0.51	61.4725	759.099	-72.91849999999999	0.322643	0	-0.135543	-0.164315	-2.02906	0.19491	-2.40246	78.1356	-10.5857	0.789478	0	-0.324979	0.00623786	-0.202875	0.0274851
0.52	66.877	745.096	-71.8591	0.326022	0	-0.135862	-0.164789	-1.83596	0.177065	-6.16258	112.894	-11.2423	0.805428	0	-0.333861	0.0148506	-0.27205	0.0270916
0.53	71.7734	725.228	-70.04389999999999	0.329226	0	-0.136242	-0.166419	-1.68157	0.162409	-11.1801	153.801	-11.4418	0.81664	0	-0.339952	0.02614	-0.359598	0.0267519
0.54	75.9158	699.304	-67.4785	0.332293	0	-0.136681	-0.16993	-1.56532	0.151044	-17.6356	200.506	-10.9744	0.825392	0	-0.344589	0.0392839	-0.446635	0.0244459
0.55	79.05719999999999	667.329	-64.1947	0.335258	0	-0.137175	-0.175729	-1.48335	0.142693	-25.6349	252.343	-9.62298	0.832773	0	-0.348419	0.052532	-0.517111	0.0197198
0.5600000000000001	80.96469999999999	629.54	-60.2556	0.338163	0	-0.13772	-0.183713	-1.42846	0.136723	-35.1288	308.412	-7.20541	0.839353	0	-0.351786	0.0632712	-0.555488	0.0129778
0.57	81.4415	586.427	-55.7564	0.341046	0	-0.138307	-0.193125	-1.39062	0.132217	-45.8768	367.647	-3.60364	0.8454390000000001	0	-0.354881	0.06829209999999999	-0.547279	0.00536437
0.58	80.3464	538.739	-50.8204	0.343948	0	-0.138929	-0.202536	-1.35804	0.128107	-57.4922	428.822	1.22751	0.8512	0	-0.357816	0.0644666	-0.480843	-0.00137642
0.59	77.6151	487.464	-45.5918	0.34691	0	-0.139574	-0.210041	-1.31917	0.12338	-69.5154	490.577	7.24918	0.856727	0	-0.360651	0.0495712	-0.349829	-0.00516937
0.6	73.28870000000001	433.791	-40.225	0.349975	0	-0.140227	-0.213711	-1.26494	0.117297	-81.4678	551.487	14.3191	0.862078	0	-0.363418	0.0229964	-0.155672	-0.00404194
0.61	67.5278	379.043	-34.8736	0.353198	0	-0.140873	-0.212034	-1.19017	0.109501	-92.8869	610.178	22.1878	0.867289	0	-0.366129	-0.0140932	0.0925792	0.00336643
